<svg xmlns="http://www.w3.org/2000/svg" viewBox="0 0 128 128" width="128" height="128">
  <defs>
    <linearGradient id="bg" x1="0" y1="0" x2="0" y2="1">
      <stop offset="0" stop-color="#121826"/><stop offset="1" stop-color="#080b12"/>
    </linearGradient>
    <filter id="glow" x="-40%" y="-40%" width="180%" height="180%">
      <feDropShadow dx="0" dy="0" stdDeviation="3.5" flood-color="#00d4ff" flood-opacity="0.55"/>
    </filter>
  </defs>
  <rect x="6" y="6" width="116" height="116" rx="26" fill="url(#bg)" stroke="#00d4ff" stroke-width="3" filter="url(#glow)"/>
  <g transform="translate(26.699999999999996 24.699999999999996) scale(1.85)"><path fill="#55ACEE" d="M29 20.729v-1.963c1-1.03 2.914-2.89 3.391-5.273.142.079.055.13.213.13.758 0 1.256-.983 1.256-2.197 0-1.194-.656-2.161-1.399-2.191.143-.516.212-1.206.212-2.092 0-2.956-2.549-6.505-8.253-6.505-5.068 0-8.244 3.549-8.244 6.505 0 .858.051 1.562.142 2.107-.697.105-1.247 1.033-1.247 2.175 0 1.214.614 2.197 1.373 2.197.157 0-.069-.051.072-.13.477 2.384 2.484 4.243 3.484 5.274v1.847c-4 .492-7 2.628-7 4.765v.81c0 .812.823.812 1.634.812h18.73c.813 0 1.636 0 1.636-.812v-.81c0-2.001-3-3.997-6-4.649z"/><path fill="#269" d="M17 28.729v-1.963c1-1.03 2.914-2.89 3.391-5.273.142.079.055.13.213.13.758 0 1.256-.983 1.256-2.197 0-1.194-.656-2.161-1.399-2.191.143-.516.212-1.206.212-2.092 0-2.956-2.549-6.505-8.253-6.505-5.069 0-8.244 3.549-8.244 6.505 0 .858.051 1.562.142 2.107-.697.105-1.247 1.033-1.247 2.175 0 1.214.614 2.197 1.373 2.197.157 0-.069-.051.072-.13C4.993 23.876 7 25.735 8 26.766v1.847c-4 .492-7 2.628-7 4.765v.811C1 35 1.823 35 2.634 35h18.73c.813 0 1.636 0 1.636-.812v-.811c0-2-3-3.996-6-4.648z"/></g>
  <g transform="translate(78.9 78.9) scale(0.95)"><path fill="#BF6952" d="M33.541 23.198c.364-1.578.243-3.266-.458-4.946-.678-1.625-1.847-2.91-3.271-3.773.318-1.192.234-2.475-.324-3.75-.841-1.92-2.66-3.201-4.712-3.562.249-.572.329-1.289.036-2.167-1-3-5-1-8-4.999-2.44 1.464-2.97 3.64-2.878 5.487-2.421.412-3.8.936-3.8.936v.002c-1.36.55-2.322 1.883-2.322 3.442 0 .879.318 1.676.828 2.312l-.692.258.001.003c-2.33.871-3.975 2.976-3.975 5.439 0 1.047.3 2.027.82 2.878C1.971 22.027 0 24.781 0 28c0 4.418 3.691 8 8.244 8 3.269 0 6.559-.703 9.531-1.665C20.018 35.375 23.47 36 28.667 36 32.717 36 36 32.717 36 28.667c0-2.176-.953-4.125-2.459-5.469z"/><ellipse fill="#F5F8FA" cx="13.5" cy="15.5" rx="3.5" ry="4.5"/><ellipse fill="#F5F8FA" cx="23.5" cy="15.5" rx="3.5" ry="4.5"/><ellipse fill="#292F33" cx="14" cy="15.5" rx="2" ry="2.5"/><ellipse fill="#292F33" cx="23" cy="15.5" rx="2" ry="2.5"/><path fill="#292F33" d="M9.447 24.895C9.201 24.402 9.45 24 10 24h18c.55 0 .799.402.553.895C28.553 24.895 26 30 19 30s-9.553-5.105-9.553-5.105z"/><path fill="#F2ABBA" d="M19 26c-2.771 0-5.157.922-6.292 2.256C14.2 29.211 16.253 30 19 30s4.801-.789 6.292-1.744C24.157 26.922 21.771 26 19 26z"/></g>
</svg>
